<?xml version="1.0" encoding="utf-8"?>
<!-- Generator: Adobe Illustrator 15.0.0, SVG Export Plug-In . SVG Version: 6.00 Build 0)  -->
<!DOCTYPE svg PUBLIC "-//W3C//DTD SVG 1.1//EN" "http://www.w3.org/Graphics/SVG/1.1/DTD/svg11.dtd">
<svg version="1.1" id="Layer_1" xmlns="http://www.w3.org/2000/svg" xmlns:xlink="http://www.w3.org/1999/xlink" x="0px" y="0px"
	 width="349.91px" height="34px" viewBox="0 0 349.91 34" enable-background="new 0 0 349.91 34" xml:space="preserve">
<rect x="-863.005" y="-84.035" display="none" fill="#231F20" stroke="#231F20" stroke-miterlimit="10" width="2076.022" height="595.276"/>
<g>
	<g>
		<path fill-rule="evenodd" clip-rule="evenodd" fill="#AF272F" d="M12.927,19.53c-0.385-0.51-0.83-0.959-1.402-1.337
			c-0.891-0.512-1.912-0.701-2.676-0.701H5.537v13.306c0,0.638-0.061,1.271,0.194,1.591c0.316,0.512,0.89,0.638,0.89,0.638H0.128
			c0,0,0.635-0.192,0.762-0.575c0.193-0.384,0.193-0.762,0.193-1.654V2.018c0-0.446-0.066-0.893-0.32-1.084
			C0.445,0.615,0.061,0.489,0,0.489h10.95c3.311,0,7.771,1.082,9.872,4.139c0.701,1.016,1.083,2.418,1.147,3.881
			c0.062,1.72-0.385,3.057-1.082,4.141c-2.04,2.931-6.051,3.823-6.307,3.823c0.127,0.189,2.485,0.954,6.75,7.707
			c2.04,3.115,5.161,7.195,6.367,7.828c0.956,0.509,1.023,0.764,2.042,1.019h-5.224c-1.083-0.061-1.78-0.318-2.354-0.701
			c-0.511-0.384-0.702-0.636-1.083-1.08C20.058,29.781,13.625,20.228,12.927,19.53L12.927,19.53z M5.537,15.898l4.97-0.063
			c2.864-0.063,4.963-1.594,6.048-3.12c1.274-1.914,1.402-5.099,0.253-7.261c-1.462-2.61-4.964-3.374-7.766-3.374H5.537V15.898
			L5.537,15.898z"/>
		<path fill-rule="evenodd" clip-rule="evenodd" fill="#AF272F" d="M137.242,32.966c0.065,0,0.509-0.131,1.082-0.958
			c0.255-0.381,0.573-0.762,0.827-1.402l11.783-24.644l11.461,24.581c0.252,0.57,0.51,1.273,0.893,1.657
			c0.51,0.573,1.02,0.828,1.082,0.828h-6.367c0.06,0,0.509-0.192,0.635-0.51c0.318-0.636-0.378-1.654-0.635-2.295l-2.613-5.599
			h-11.018l-2.928,6.108c-0.189,0.515-0.509,0.896-0.446,1.468c0.063,0.444,1.082,0.767,1.082,0.767H137.242L137.242,32.966z
			 M149.786,12.649l-4.776,10.446h9.679L149.786,12.649L149.786,12.649z"/>
		<path fill-rule="evenodd" clip-rule="evenodd" fill="#AF272F" d="M41.176,31.113h-0.063V19.207h7.323
			c0.444,0,0.764-0.126,1.08,0.131c0.386,0.192,0.575,0.444,0.703,0.764v-3.568c-0.189,0.449-0.317,0.575-0.57,0.828
			c-0.32,0.32-0.895,0.446-1.339,0.446h-7.134V8.383h8.98c0.702,0,1.019,0,1.465,0.317c0.441,0.257,0.699,0.83,0.956,1.276V6.789
			H36.019c0.127,0,0.634,0.194,0.954,0.575c0.256,0.252,0.256,0.827,0.318,1.659v22.475c-0.062,0.444-0.318,1.145-0.89,1.529h17.321
			l0.83-4.267c-0.32,0.893-0.77,1.336-1.339,1.783c-0.702,0.57-1.15,0.764-2.229,0.956c-0.512,0.129-8.852,0.129-9.871-0.385H41.176
			L41.176,31.113z"/>
		<path fill="#AF272F" d="M88.837,17.381c-0.142-0.833-0.404-1.728-0.792-2.678c-0.384-0.953-0.918-1.899-1.599-2.837
			c-0.684-0.941-1.579-1.783-2.684-2.525c-1.104-0.747-2.436-1.359-3.992-1.836c-1.556-0.477-3.402-0.716-5.536-0.716h-4.03h-1.99
			h-3.854c0.129,0,0.638,0.194,0.958,0.575c0.252,0.252,0.252,0.827,0.315,1.659v22.475c-0.063,0.444-0.315,1.145-0.89,1.529h2.54
			h2.459h3.757c2.751,0,5.112-0.419,7.079-1.256c1.967-0.834,3.576-1.901,4.822-3.203c1.248-1.296,2.168-2.749,2.758-4.358
			c0.593-1.606,0.888-3.183,0.888-4.726C89.049,18.919,88.979,18.218,88.837,17.381z M84.495,23.756
			c-0.358,1.417-0.974,2.693-1.836,3.823c-0.865,1.13-2.033,2.048-3.5,2.744c-1.47,0.696-3.298,1.043-5.493,1.043
			c-0.59,0-1.296,0-2.108,0c-0.727,0-1.402-0.022-2.038-0.065V8.469c0.192-0.015,0.411-0.03,0.707-0.036
			c0.408-0.015,0.847-0.02,1.311-0.02c0.467,0,0.938,0,1.412,0c0.479,0,0.898,0,1.258,0c2.01,0,3.707,0.353,5.084,1.059
			c1.379,0.711,2.494,1.606,3.346,2.688c0.853,1.082,1.463,2.274,1.836,3.576c0.374,1.301,0.563,2.544,0.563,3.727
			C85.037,20.906,84.855,22.339,84.495,23.756z"/>
		<path fill="#AF272F" d="M130.927,23.68c0,1.503-0.333,2.855-0.991,4.05c-0.661,1.195-1.525,2.219-2.592,3.064
			c-1.067,0.85-2.267,1.503-3.606,1.969c-1.339,0.461-2.683,0.696-4.038,0.696c-1.12,0-2.153-0.096-3.102-0.291
			c-0.948-0.194-1.811-0.426-2.59-0.693c-0.779-0.272-1.483-0.56-2.111-0.865c-0.623-0.303-1.175-0.583-1.649-0.84l-0.154-7.188
			c0.272,0.862,0.653,1.758,1.143,2.683c0.495,0.929,1.109,1.775,1.856,2.542c0.744,0.766,1.634,1.397,2.667,1.891
			c1.035,0.497,2.225,0.747,3.581,0.747c1.357,0,2.482-0.227,3.38-0.676c0.897-0.446,1.866-0.996,2.396-1.649
			c0.524-0.656,0.888-1.362,1.092-2.108c0.202-0.752,0.305-1.418,0.305-1.99c0-1.152-0.225-2.101-0.661-2.857
			c-0.441-0.749-1.043-1.395-1.806-1.939c-0.762-0.542-1.932-1.046-2.976-1.511c-1.052-0.459-2.184-0.98-3.405-1.553
			c-2.471-1.185-4.327-2.431-5.563-3.743c-1.238-1.311-1.856-2.956-1.856-4.938c0-1.438,0.323-2.688,0.966-3.763
			c0.643-1.07,1.473-1.947,2.489-2.633c1.019-0.688,2.144-1.205,3.379-1.558c1.236-0.354,2.464-0.53,3.685-0.53
			c0.948,0,2.098,0.121,3.453,0.361c1.356,0.239,2.628,0.729,3.813,1.462l0.252,6.328c-0.166-0.578-0.464-1.224-0.888-1.942
			c-0.423-0.722-0.983-1.397-1.677-2.038c-0.693-0.636-1.515-1.173-2.464-1.604c-0.953-0.434-2.018-0.648-3.203-0.648
			c-1.082,0-1.987,0.168-2.718,0.504c-0.727,0.335-1.493,0.759-1.914,1.268c-0.426,0.512-0.729,1.064-0.916,1.654
			c-0.187,0.593-0.283,1.141-0.283,1.654c0,0.767,0.131,1.423,0.383,1.967c0.255,0.542,0.661,1.201,1.221,1.659
			c0.56,0.467,1.468,0.928,2.345,1.393c0.883,0.463,1.935,0.983,3.155,1.558c1.218,0.575,2.403,1.135,3.553,1.68
			c1.152,0.542,2.179,1.18,3.077,1.917c0.897,0.734,1.616,1.472,2.159,2.529C130.655,20.755,130.927,22.086,130.927,23.68z"/>
		<g>
			<path fill-rule="evenodd" clip-rule="evenodd" fill="#AF272F" d="M262.532,10.229v21.077c0,0.449,0.065,0.702,0.252,0.893
				c0.32,0.318,0.51,0.573,0.896,0.767h-4.139c0.441-0.131,0.701-0.449,0.762-0.641c0.061-0.126,0.186-0.51,0.186-0.636V8.383
				c0-0.701-0.125-1.019-0.313-1.145c-0.254-0.255-0.574-0.51-0.635-0.51h4.389l18.664,19.424V8c0-0.383,0-0.51-0.131-0.696
				c-0.189-0.257-0.381-0.449-0.828-0.575h4.016c-0.386,0.126-0.573,0.318-0.706,0.575c-0.121,0.252-0.188,0.313-0.188,0.696v25.536
				L262.532,10.229L262.532,10.229z"/>
			<path fill-rule="evenodd" clip-rule="evenodd" fill="#AF272F" d="M292.118,32.966c0,0,0.51-0.131,1.082-0.958
				c0.255-0.381,0.576-0.762,0.827-1.402l11.722-24.644l11.524,24.581c0.255,0.57,0.508,1.273,0.828,1.657
				c0.575,0.573,1.082,0.828,1.147,0.828h-6.372c0.068,0,0.514-0.192,0.64-0.51c0.32-0.636-0.38-1.654-0.7-2.295l-2.548-5.599
				h-11.021l-2.926,6.108c-0.191,0.515-0.572,0.958-0.512,1.533c0.065,0.444,0.832,0.702,0.896,0.702H292.118L292.118,32.966z
				 M304.667,12.649l-4.779,10.446h9.684L304.667,12.649L304.667,12.649z"/>
			<path fill-rule="evenodd" clip-rule="evenodd" fill="#AF272F" d="M190.991,32.966c0.065,0,0.513-0.131,1.083-0.958
				c0.252-0.381,0.576-0.762,0.826-1.402l11.779-24.644l11.462,24.581c0.258,0.57,0.513,1.273,0.894,1.657
				c0.507,0.573,1.021,0.828,1.082,0.828h-6.363c0.061,0,0.507-0.192,0.636-0.51c0.315-0.636-0.381-1.654-0.636-2.295l-2.615-5.599
				h-11.013l-2.931,6.108c-0.187,0.515-0.512,0.896-0.446,1.468c0.065,0.444,1.081,0.767,1.081,0.767H190.991L190.991,32.966z
				 M203.537,12.649l-4.775,10.446h9.681L203.537,12.649L203.537,12.649z"/>
			<path fill-rule="evenodd" clip-rule="evenodd" fill="#AF272F" d="M228.087,10.229v21.077c0,0.449,0.068,0.702,0.199,0.893
				c0.315,0.318,0.508,0.573,0.949,0.767h-4.139c0.448-0.131,0.641-0.449,0.767-0.641c0.067-0.126,0.194-0.51,0.194-0.636V8.383
				c0-0.701-0.194-1.019-0.386-1.145c-0.255-0.255-0.575-0.51-0.636-0.51h4.459l18.588,19.424V8.065c0-0.383,0-0.509-0.12-0.762
				c-0.127-0.257-0.382-0.449-0.768-0.575h3.884c-0.313,0.126-0.507,0.318-0.633,0.51c-0.194,0.252-0.194,0.444-0.194,0.827
				l0.065,25.471L228.087,10.229L228.087,10.229z"/>
			<path fill="#AF272F" d="M348.633,31.498V9.023c0.061-0.832,0.061-1.407,0.315-1.659c0.325-0.381,0.827-0.575,0.961-0.575h-2.189
				h-2.971h-1.277c0.124,0,0.632,0.194,0.952,0.575c0.26,0.252,0.26,0.827,0.315,1.659v8.557h-13.532V9.023
				c0.061-0.832,0.061-1.407,0.315-1.659c0.32-0.381,0.826-0.575,0.953-0.575h-1.278h-2.976h-2.185c0.134,0,0.641,0.194,0.961,0.575
				c0.255,0.252,0.255,0.827,0.315,1.659v22.475c-0.061,0.444-0.315,1.145-0.891,1.529h1.799h2.976h0.897
				c-0.572-0.384-0.827-1.085-0.888-1.529V19.202h13.532v12.296c-0.056,0.444-0.315,1.145-0.888,1.529h0.897h2.971h1.804
				C348.949,32.643,348.694,31.942,348.633,31.498z"/>
		</g>
		<path fill-rule="evenodd" clip-rule="evenodd" fill="#AF272F" d="M179.347,27.32L179.347,27.32l8.343-18.297
			c0.189-0.514,0.509-0.895,0.446-1.467c-0.065-0.447-1.087-0.767-1.087-0.767h4.408l0,0c-0.061,0-0.507,0.129-1.087,0.956
			c-0.253,0.383-0.567,0.764-0.822,1.405L178.202,34L167.071,9.21c-0.258-0.57-0.51-1.271-0.894-1.654
			c-0.512-0.573-1.018-0.828-1.083-0.828h6.037c-0.062,0-0.505,0.189-0.634,0.51c-0.32,0.636,0.381,1.654,0.634,2.292L179.347,27.32
			z"/>
	</g>
</g>
</svg>
